<?xml version="1.0" standalone="no"?>
<svg viewBox="0 0 200 200" xmlns="http://www.w3.org/2000/svg">
  <path fill="#FFB259" d="M32.8,-45.9C46.7,-42.2,65,-40.1,74.9,-30.7C84.7,-21.2,86,-4.3,83.5,11.9C81,28.1,74.7,43.7,62.6,49.9C50.5,56.2,32.6,53.2,17,57.7C1.4,62.1,-12,74.1,-21.5,71.9C-31.1,69.7,-36.8,53.3,-42.5,40.4C-48.2,27.5,-53.8,18,-58,6.7C-62.2,-4.6,-64.9,-17.7,-61.8,-29.9C-58.8,-42,-50.1,-53.2,-38.8,-58.1C-27.6,-63.1,-13.8,-61.8,-2.2,-58.4C9.5,-55.1,18.9,-49.6,32.8,-45.9Z" transform="translate(100 100)" />
</svg>
