<svg id="visual" viewBox="0 0 900 600" width="900" height="600" xmlns="http://www.w3.org/2000/svg" xmlns:xlink="http://www.w3.org/1999/xlink" version="1.1"><path d="M0 532L15 525.2C30 518.3 60 504.7 90 505.7C120 506.7 150 522.3 180 522.2C210 522 240 506 270 496C300 486 330 482 360 490.3C390 498.7 420 519.3 450 530.7C480 542 510 544 540 535C570 526 600 506 630 505.3C660 504.7 690 523.3 720 521.5C750 519.7 780 497.3 810 490.2C840 483 870 491 885 495L900 499L900 601L885 601C870 601 840 601 810 601C780 601 750 601 720 601C690 601 660 601 630 601C600 601 570 601 540 601C510 601 480 601 450 601C420 601 390 601 360 601C330 601 300 601 270 601C240 601 210 601 180 601C150 601 120 601 90 601C60 601 30 601 15 601L0 601Z" fill="#D85d44" stroke-linecap="round" stroke-linejoin="miter"></path></svg>