<svg id="visual" viewBox="0 0 900 600" width="900" height="600" xmlns="http://www.w3.org/2000/svg" xmlns:xlink="http://www.w3.org/1999/xlink" version="1.1"><path d="M0 466L15 470.5C30 475 60 484 90 480.5C120 477 150 461 180 466C210 471 240 497 270 499.7C300 502.3 330 481.7 360 471.8C390 462 420 463 450 471.7C480 480.3 510 496.7 540 499.5C570 502.3 600 491.7 630 481.5C660 471.3 690 461.7 720 458.3C750 455 780 458 810 470.2C840 482.3 870 503.7 885 514.3L900 525L900 601L885 601C870 601 840 601 810 601C780 601 750 601 720 601C690 601 660 601 630 601C600 601 570 601 540 601C510 601 480 601 450 601C420 601 390 601 360 601C330 601 300 601 270 601C240 601 210 601 180 601C150 601 120 601 90 601C60 601 30 601 15 601L0 601Z" fill="#f4eee1" stroke-linecap="round" stroke-linejoin="miter"></path></svg>