<svg id="visual" viewBox="0 0 900 600" width="900" height="600" xmlns="http://www.w3.org/2000/svg" xmlns:xlink="http://www.w3.org/1999/xlink" version="1.1"><path d="M0 473L8.8 472.7C17.7 472.3 35.3 471.7 53 474C70.7 476.3 88.3 481.7 106 493C123.7 504.3 141.3 521.7 159 519.7C176.7 517.7 194.3 496.3 212 492.2C229.7 488 247.3 501 265 506.5C282.7 512 300.3 510 318 512.7C335.7 515.3 353.3 522.7 371 528.3C388.7 534 406.3 538 423.8 539.5C441.3 541 458.7 540 476.2 535.7C493.7 531.3 511.3 523.7 529 524C546.7 524.3 564.3 532.7 582 529C599.7 525.3 617.3 509.7 635 508.3C652.7 507 670.3 520 688 527.5C705.7 535 723.3 537 741 528C758.7 519 776.3 499 794 493.3C811.7 487.7 829.3 496.3 847 498.2C864.7 500 882.3 495 891.2 492.5L900 490L900 601L891.2 601C882.3 601 864.7 601 847 601C829.3 601 811.7 601 794 601C776.3 601 758.7 601 741 601C723.3 601 705.7 601 688 601C670.3 601 652.7 601 635 601C617.3 601 599.7 601 582 601C564.3 601 546.7 601 529 601C511.3 601 493.7 601 476.2 601C458.7 601 441.3 601 423.8 601C406.3 601 388.7 601 371 601C353.3 601 335.7 601 318 601C300.3 601 282.7 601 265 601C247.3 601 229.7 601 212 601C194.3 601 176.7 601 159 601C141.3 601 123.7 601 106 601C88.3 601 70.7 601 53 601C35.3 601 17.7 601 8.8 601L0 601Z" fill="#3d1d15" stroke-linecap="round" stroke-linejoin="miter"></path></svg>